<?xml version="1.0" encoding="UTF-8" standalone="no"?>
<!DOCTYPE svg PUBLIC "-//W3C//DTD SVG 1.1//EN" "http://www.w3.org/Graphics/SVG/1.1/DTD/svg11.dtd">
<svg width="100%" height="100%" viewBox="0 0 1920 1080" version="1.1" xmlns="http://www.w3.org/2000/svg" xmlns:xlink="http://www.w3.org/1999/xlink" xml:space="preserve" style="fill-rule:evenodd;clip-rule:evenodd;stroke-linejoin:round;stroke-miterlimit:1.41421;">
    <g id="logo" transform="matrix(1,0,0,1,480,0)">
        <g transform="matrix(-0.52211,-6.394e-17,6.394e-17,-0.52211,1774.91,1748.18)">
            <path d="M2728.3,1944.96l0,181.033l556.203,0c63.513,0.001 115,51.488 115,115c0,80.022 0,186.289 0,266.31c0,63.513 -51.488,115 -115,115c-204.286,0 -609.205,0 -609.205,0l0,-53.004c0,0 446.598,0 611.224,0c15.913,0 31.174,-6.321 42.426,-17.573c11.252,-11.252 17.574,-26.514 17.574,-42.427c0,-73.395 0,-196.907 0,-270.302c0,-15.913 -6.322,-31.174 -17.574,-42.427c-11.252,-11.252 -26.513,-17.573 -42.426,-17.573c-164.626,0 -611.224,0 -611.224,0l0,-0.491l-0.001,0l0,-288.304l0.036,-0.017l-0.035,-0.037l440.102,-212.396l-387.1,267.208Zm0,-310.819l342.239,-191.582l-285.259,261.86l-350.145,173.817l240.162,-202.858l0,-108.373c0,-15.913 -6.321,-31.175 -17.573,-42.427c-11.252,-11.252 -26.514,-17.573 -42.427,-17.573c-73.393,0 -196.902,0 -270.295,0c-15.913,0 -31.175,6.321 -42.427,17.573c-11.252,11.252 -17.573,26.514 -17.573,42.427l0,611.501l-53.003,0c0,0 0,-405.149 0,-609.504c0,-30.5 12.116,-59.751 33.683,-81.317c21.566,-21.567 50.817,-33.683 81.317,-33.683c80.019,0 186.282,0 266.301,0c30.5,0 59.751,12.116 81.317,33.683c21.567,21.566 33.683,50.817 33.683,81.317l0,65.139Zm59.884,142.597l149.337,-157.685l406.489,-219.617l-323.505,272.286l-232.321,105.016Z" style="fill:#f44336;"/>
        </g>
        <g transform="matrix(0.52211,0,0,0.52211,-814.914,-730.658)">
            <path d="M2728.3,1944.96l0,181.033l556.203,0c63.513,0.001 115,51.488 115,115c0,80.022 0,186.289 0,266.31c0,63.513 -51.488,115 -115,115c-204.286,0 -609.205,0 -609.205,0l0,-53.004c0,0 446.598,0 611.224,0c15.913,0 31.174,-6.321 42.426,-17.573c11.252,-11.252 17.574,-26.514 17.574,-42.427c0,-73.395 0,-196.907 0,-270.302c0,-15.913 -6.322,-31.174 -17.574,-42.427c-11.252,-11.252 -26.513,-17.573 -42.426,-17.573c-164.626,0 -611.224,0 -611.224,0l0,-0.491l-0.001,0l0,-288.304l0.036,-0.017l-0.035,-0.037l440.102,-212.396l-387.1,267.208Zm0,-310.819l342.239,-191.582l-285.259,261.86l-350.145,173.817l240.162,-202.858l0,-108.373c0,-15.913 -6.321,-31.175 -17.573,-42.427c-11.252,-11.252 -26.514,-17.573 -42.427,-17.573c-73.393,0 -196.902,0 -270.295,0c-15.913,0 -31.175,6.321 -42.427,17.573c-11.252,11.252 -17.573,26.514 -17.573,42.427l0,611.501l-53.003,0c0,0 0,-405.149 0,-609.504c0,-30.5 12.116,-59.751 33.683,-81.317c21.566,-21.567 50.817,-33.683 81.317,-33.683c80.019,0 186.282,0 266.301,0c30.5,0 59.751,12.116 81.317,33.683c21.567,21.566 33.683,50.817 33.683,81.317l0,65.139Zm59.884,142.597l149.337,-157.685l406.489,-219.617l-323.505,272.286l-232.321,105.016Z" style="fill:#f44336;"/>
        </g>
    </g>
</svg>
